<svg width="39" height="29" viewBox="0 0 39 29" fill="none" xmlns="http://www.w3.org/2000/svg">
<path id="Vector" d="M34.9912 7.22732C35.016 7.54449 35.016 7.86173 35.016 8.1789C35.016 17.8531 26.9735 29 12.2742 29C7.74557 29 3.53873 27.7992 0 25.7149C0.643426 25.7828 1.26202 25.8055 1.9302 25.8055C5.66683 25.8055 9.10661 24.65 11.8535 22.6789C8.33948 22.6109 5.39467 20.5039 4.38005 17.6039C4.87502 17.6718 5.36991 17.7172 5.88963 17.7172C6.60725 17.7172 7.32494 17.6265 7.99305 17.468C4.33062 16.7882 1.5837 13.843 1.5837 10.2859V10.1953C2.64774 10.7391 3.88516 11.0789 5.19662 11.1242C3.04369 9.8101 1.63321 7.56716 1.63321 5.02964C1.63321 3.67029 2.02907 2.42419 2.72201 1.33668C6.65669 5.77731 12.5711 8.67726 19.203 8.9945C19.0793 8.45075 19.005 7.8844 19.005 7.31798C19.005 3.28512 22.5685 0 26.9981 0C29.2995 0 31.3781 0.883592 32.8382 2.31094C34.6446 1.99376 36.3769 1.38202 37.9112 0.543754C37.3172 2.24301 36.0552 3.67036 34.3972 4.57654C36.0057 4.41803 37.5648 4.01012 39 3.44377C37.9113 4.89372 36.5502 6.18507 34.9912 7.22732Z" fill="#437E70"/>
</svg>
